<?xml version="1.0" encoding="UTF-8" standalone="no"?>
<!DOCTYPE svg PUBLIC "-//W3C//DTD SVG 1.1//EN"
 "http://www.w3.org/Graphics/SVG/1.1/DTD/svg11.dtd">
<!-- Generated by graphviz version 2.40.1 (20161225.0304)
 -->
<!-- Title: dependencies Pages: 1 -->
<svg width="993pt" height="284pt"
 viewBox="0.00 0.00 993.00 284.00" xmlns="http://www.w3.org/2000/svg" xmlns:xlink="http://www.w3.org/1999/xlink">
<g id="graph0" class="graph" transform="scale(1 1) rotate(0) translate(4 280)">
<title>dependencies</title>
<polygon fill="#ffffff" stroke="transparent" points="-4,4 -4,-280 989,-280 989,4 -4,4"/>
<text text-anchor="start" x="471.5091" y="-42.4" font-family="sans-serif" font-weight="bold" font-size="14.00" fill="#000000">Legend</text>
<polygon fill="#ffffb3" stroke="transparent" points="258.5,-10 258.5,-30 278.5,-30 278.5,-10 258.5,-10"/>
<text text-anchor="start" x="282.129" y="-15.4" font-family="sans-serif" font-size="14.00" fill="#000000"> &#160;Declarations</text>
<polygon fill="#8dd3c7" stroke="transparent" points="371.5,-10 371.5,-30 391.5,-30 391.5,-10 371.5,-10"/>
<text text-anchor="start" x="395.2251" y="-15.4" font-family="sans-serif" font-size="14.00" fill="#000000"> &#160;Module</text>
<polygon fill="#80b1d3" stroke="transparent" points="457.5,-10 457.5,-30 477.5,-30 477.5,-10 457.5,-10"/>
<text text-anchor="start" x="481.2812" y="-15.4" font-family="sans-serif" font-size="14.00" fill="#000000"> &#160;Bootstrap</text>
<polygon fill="#fdb462" stroke="transparent" points="554.5,-10 554.5,-30 574.5,-30 574.5,-10 554.5,-10"/>
<text text-anchor="start" x="578.1732" y="-15.4" font-family="sans-serif" font-size="14.00" fill="#000000"> &#160;Providers</text>
<polygon fill="#fb8072" stroke="transparent" points="650.5,-10 650.5,-30 670.5,-30 670.5,-10 650.5,-10"/>
<text text-anchor="start" x="674.2258" y="-15.4" font-family="sans-serif" font-size="14.00" fill="#000000"> &#160;Exports</text>
<g id="clust1" class="cluster">
<title>cluster_AppModule</title>
<polygon fill="none" stroke="#000000" stroke-dasharray="1,5" points="8,-70 8,-268 977,-268 977,-70 8,-70"/>
</g>
<g id="clust2" class="cluster">
<title>cluster_AppModule_declarations</title>
<polygon fill="none" stroke="#000000" points="847,-78 847,-130 969,-130 969,-78 847,-78"/>
</g>
<g id="clust4" class="cluster">
<title>cluster_AppModule_imports</title>
<polygon fill="none" stroke="#000000" points="200,-78 200,-130 839,-130 839,-78 200,-78"/>
</g>
<g id="clust6" class="cluster">
<title>cluster_AppModule_bootstrap</title>
<polygon fill="none" stroke="#000000" points="501,-208 501,-260 625,-260 625,-208 501,-208"/>
</g>
<g id="clust7" class="cluster">
<title>cluster_AppModule_providers</title>
<polygon fill="none" stroke="#000000" points="16,-78 16,-130 192,-130 192,-78 16,-78"/>
</g>
<!-- AppComponent -->
<g id="node1" class="node">
<title>AppComponent</title>
<polygon fill="#ffffb3" stroke="#000000" points="960.9399,-122 855.0601,-122 855.0601,-86 960.9399,-86 960.9399,-122"/>
<text text-anchor="middle" x="908" y="-99.8" font-family="Times,serif" font-size="14.00" fill="#000000">AppComponent</text>
</g>
<!-- AppModule -->
<g id="node2" class="node">
<title>AppModule</title>
<polygon fill="#8dd3c7" stroke="#000000" points="604.6571,-187 601.6571,-191 580.6571,-191 577.6571,-187 521.3429,-187 521.3429,-151 604.6571,-151 604.6571,-187"/>
<text text-anchor="middle" x="563" y="-164.8" font-family="Times,serif" font-size="14.00" fill="#000000">AppModule</text>
</g>
<!-- AppComponent&#45;&gt;AppModule -->
<g id="edge1" class="edge">
<title>AppComponent&#45;&gt;AppModule</title>
<path fill="none" stroke="#000000" d="M908,-122.2921C908,-144.2057 908,-178 908,-178 908,-178 614.9589,-178 614.9589,-178"/>
<polygon fill="#000000" stroke="#000000" points="614.9589,-174.5001 604.9589,-178 614.9588,-181.5001 614.9589,-174.5001"/>
</g>
<!-- AppComponent  -->
<g id="node8" class="node">
<title>AppComponent </title>
<polygon fill="#80b1d3" stroke="#000000" points="617.439,-252 508.561,-252 508.561,-216 617.439,-216 617.439,-252"/>
<text text-anchor="middle" x="563" y="-229.8" font-family="Times,serif" font-size="14.00" fill="#000000">AppComponent </text>
</g>
<!-- AppModule&#45;&gt;AppComponent  -->
<g id="edge7" class="edge">
<title>AppModule&#45;&gt;AppComponent </title>
<path fill="none" stroke="#000000" stroke-dasharray="1,5" d="M563,-187.1061C563,-187.1061 563,-205.991 563,-205.991"/>
<polygon fill="#000000" stroke="#000000" points="559.5001,-205.9909 563,-215.991 566.5001,-205.991 559.5001,-205.9909"/>
</g>
<!-- CoreModule -->
<g id="node3" class="node">
<title>CoreModule</title>
<polygon fill="#8dd3c7" stroke="#000000" points="831.2619,-122 828.2619,-126 807.2619,-126 804.2619,-122 744.7381,-122 744.7381,-86 831.2619,-86 831.2619,-122"/>
<text text-anchor="middle" x="788" y="-99.8" font-family="Times,serif" font-size="14.00" fill="#000000">CoreModule</text>
</g>
<!-- CoreModule&#45;&gt;AppModule -->
<g id="edge2" class="edge">
<title>CoreModule&#45;&gt;AppModule</title>
<path fill="none" stroke="#000000" d="M788,-122.1061C788,-141.3391 788,-169 788,-169 788,-169 614.7935,-169 614.7935,-169"/>
<polygon fill="#000000" stroke="#000000" points="614.7935,-165.5001 604.7935,-169 614.7934,-172.5001 614.7935,-165.5001"/>
</g>
<!-- SharedModule -->
<g id="node4" class="node">
<title>SharedModule</title>
<polygon fill="#8dd3c7" stroke="#000000" points="726.4231,-122 723.4231,-126 702.4231,-126 699.4231,-122 627.5769,-122 627.5769,-86 726.4231,-86 726.4231,-122"/>
<text text-anchor="middle" x="677" y="-99.8" font-family="Times,serif" font-size="14.00" fill="#000000">SharedModule</text>
</g>
<!-- SharedModule&#45;&gt;AppModule -->
<g id="edge3" class="edge">
<title>SharedModule&#45;&gt;AppModule</title>
<path fill="none" stroke="#000000" d="M677,-122.027C677,-138.3976 677,-160 677,-160 677,-160 614.8021,-160 614.8021,-160"/>
<polygon fill="#000000" stroke="#000000" points="614.8021,-156.5001 604.8021,-160 614.802,-163.5001 614.8021,-156.5001"/>
</g>
<!-- HomeModule -->
<g id="node5" class="node">
<title>HomeModule</title>
<polygon fill="#8dd3c7" stroke="#000000" points="609.7619,-122 606.7619,-126 585.7619,-126 582.7619,-122 516.2381,-122 516.2381,-86 609.7619,-86 609.7619,-122"/>
<text text-anchor="middle" x="563" y="-99.8" font-family="Times,serif" font-size="14.00" fill="#000000">HomeModule</text>
</g>
<!-- HomeModule&#45;&gt;AppModule -->
<g id="edge4" class="edge">
<title>HomeModule&#45;&gt;AppModule</title>
<path fill="none" stroke="#000000" d="M563,-122.1061C563,-122.1061 563,-140.991 563,-140.991"/>
<polygon fill="#000000" stroke="#000000" points="559.5001,-140.9909 563,-150.991 566.5001,-140.991 559.5001,-140.9909"/>
</g>
<!-- AppRoutingModule -->
<g id="node6" class="node">
<title>AppRoutingModule</title>
<polygon fill="#8dd3c7" stroke="#000000" points="498.2744,-122 495.2744,-126 474.2744,-126 471.2744,-122 369.7256,-122 369.7256,-86 498.2744,-86 498.2744,-122"/>
<text text-anchor="middle" x="434" y="-99.8" font-family="Times,serif" font-size="14.00" fill="#000000">AppRoutingModule</text>
</g>
<!-- AppRoutingModule&#45;&gt;AppModule -->
<g id="edge5" class="edge">
<title>AppRoutingModule&#45;&gt;AppModule</title>
<path fill="none" stroke="#000000" d="M434,-122.027C434,-138.3976 434,-160 434,-160 434,-160 511.1174,-160 511.1174,-160"/>
<polygon fill="#000000" stroke="#000000" points="511.1174,-163.5001 521.1174,-160 511.1174,-156.5001 511.1174,-163.5001"/>
</g>
<!-- PageNotFoundModule -->
<g id="node7" class="node">
<title>PageNotFoundModule</title>
<polygon fill="#8dd3c7" stroke="#000000" points="351.5421,-122 348.5421,-126 327.5421,-126 324.5421,-122 208.4579,-122 208.4579,-86 351.5421,-86 351.5421,-122"/>
<text text-anchor="middle" x="280" y="-99.8" font-family="Times,serif" font-size="14.00" fill="#000000">PageNotFoundModule</text>
</g>
<!-- PageNotFoundModule&#45;&gt;AppModule -->
<g id="edge6" class="edge">
<title>PageNotFoundModule&#45;&gt;AppModule</title>
<path fill="none" stroke="#000000" d="M280,-122.1061C280,-141.3391 280,-169 280,-169 280,-169 511.2424,-169 511.2424,-169"/>
<polygon fill="#000000" stroke="#000000" points="511.2424,-172.5001 521.2424,-169 511.2423,-165.5001 511.2424,-172.5001"/>
</g>
<!-- CollectionService -->
<g id="node9" class="node">
<title>CollectionService</title>
<ellipse fill="#fdb462" stroke="#000000" cx="104" cy="-104" rx="80.4519" ry="18"/>
<text text-anchor="middle" x="104" y="-99.8" font-family="Times,serif" font-size="14.00" fill="#000000">CollectionService</text>
</g>
<!-- CollectionService&#45;&gt;AppModule -->
<g id="edge8" class="edge">
<title>CollectionService&#45;&gt;AppModule</title>
<path fill="none" stroke="#000000" d="M104,-122.2921C104,-144.2057 104,-178 104,-178 104,-178 511.05,-178 511.05,-178"/>
<polygon fill="#000000" stroke="#000000" points="511.05,-181.5001 521.05,-178 511.05,-174.5001 511.05,-181.5001"/>
</g>
</g>
</svg>
