<?xml version="1.0" encoding="UTF-8" standalone="no"?>
<!DOCTYPE svg PUBLIC "-//W3C//DTD SVG 1.1//EN"
 "http://www.w3.org/Graphics/SVG/1.1/DTD/svg11.dtd">
<!-- Generated by graphviz version 2.40.1 (20161225.0304)
 -->
<!-- Title: dependencies Pages: 1 -->
<svg width="2495pt" height="366pt"
 viewBox="0.00 0.00 2495.00 366.00" xmlns="http://www.w3.org/2000/svg" xmlns:xlink="http://www.w3.org/1999/xlink">
<g id="graph0" class="graph" transform="scale(1 1) rotate(0) translate(4 362)">
<title>dependencies</title>
<polygon fill="#ffffff" stroke="transparent" points="-4,4 -4,-362 2491,-362 2491,4 -4,4"/>
<text text-anchor="start" x="1222.5091" y="-42.4" font-family="sans-serif" font-weight="bold" font-size="14.00" fill="#000000">Legend</text>
<polygon fill="#ffffb3" stroke="transparent" points="1009.5,-10 1009.5,-30 1029.5,-30 1029.5,-10 1009.5,-10"/>
<text text-anchor="start" x="1033.129" y="-15.4" font-family="sans-serif" font-size="14.00" fill="#000000"> &#160;Declarations</text>
<polygon fill="#8dd3c7" stroke="transparent" points="1122.5,-10 1122.5,-30 1142.5,-30 1142.5,-10 1122.5,-10"/>
<text text-anchor="start" x="1146.2251" y="-15.4" font-family="sans-serif" font-size="14.00" fill="#000000"> &#160;Module</text>
<polygon fill="#80b1d3" stroke="transparent" points="1208.5,-10 1208.5,-30 1228.5,-30 1228.5,-10 1208.5,-10"/>
<text text-anchor="start" x="1232.2812" y="-15.4" font-family="sans-serif" font-size="14.00" fill="#000000"> &#160;Bootstrap</text>
<polygon fill="#fdb462" stroke="transparent" points="1305.5,-10 1305.5,-30 1325.5,-30 1325.5,-10 1305.5,-10"/>
<text text-anchor="start" x="1329.1732" y="-15.4" font-family="sans-serif" font-size="14.00" fill="#000000"> &#160;Providers</text>
<polygon fill="#fb8072" stroke="transparent" points="1401.5,-10 1401.5,-30 1421.5,-30 1421.5,-10 1401.5,-10"/>
<text text-anchor="start" x="1425.2258" y="-15.4" font-family="sans-serif" font-size="14.00" fill="#000000"> &#160;Exports</text>
<g id="clust1" class="cluster">
<title>cluster_AppModule</title>
<polygon fill="none" stroke="#000000" stroke-dasharray="1,5" points="486,-146 486,-350 1455,-350 1455,-146 486,-146"/>
</g>
<g id="clust2" class="cluster">
<title>cluster_AppModule_declarations</title>
<polygon fill="none" stroke="#000000" points="678,-154 678,-206 800,-206 800,-154 678,-154"/>
</g>
<g id="clust4" class="cluster">
<title>cluster_AppModule_imports</title>
<polygon fill="none" stroke="#000000" points="808,-154 808,-206 1447,-206 1447,-154 808,-154"/>
</g>
<g id="clust6" class="cluster">
<title>cluster_AppModule_bootstrap</title>
<polygon fill="none" stroke="#000000" points="930,-290 930,-342 1054,-342 1054,-290 930,-290"/>
</g>
<g id="clust7" class="cluster">
<title>cluster_AppModule_providers</title>
<polygon fill="none" stroke="#000000" points="494,-154 494,-206 670,-206 670,-154 494,-154"/>
</g>
<g id="clust20" class="cluster">
<title>cluster_HomeModule</title>
<polygon fill="none" stroke="#000000" stroke-dasharray="1,5" points="533,-70 533,-138 987,-138 987,-70 533,-70"/>
</g>
<g id="clust21" class="cluster">
<title>cluster_HomeModule_declarations</title>
<polygon fill="none" stroke="#000000" points="847,-78 847,-130 979,-130 979,-78 847,-78"/>
</g>
<g id="clust23" class="cluster">
<title>cluster_HomeModule_imports</title>
<polygon fill="none" stroke="#000000" points="685,-78 685,-130 839,-130 839,-78 685,-78"/>
</g>
<g id="clust24" class="cluster">
<title>cluster_HomeModule_exports</title>
<polygon fill="none" stroke="#000000" points="541,-78 541,-130 677,-130 677,-78 541,-78"/>
</g>
<g id="clust33" class="cluster">
<title>cluster_ItemsModule</title>
<polygon fill="none" stroke="#000000" stroke-dasharray="1,5" points="8,-146 8,-350 478,-350 478,-146 8,-146"/>
</g>
<g id="clust34" class="cluster">
<title>cluster_ItemsModule_declarations</title>
<polygon fill="none" stroke="#000000" points="170,-154 170,-206 470,-206 470,-154 170,-154"/>
</g>
<g id="clust37" class="cluster">
<title>cluster_ItemsModule_imports</title>
<polygon fill="none" stroke="#000000" points="16,-154 16,-206 162,-206 162,-154 16,-154"/>
</g>
<g id="clust38" class="cluster">
<title>cluster_ItemsModule_exports</title>
<polygon fill="none" stroke="#000000" points="90,-290 90,-342 396,-342 396,-290 90,-290"/>
</g>
<g id="clust47" class="cluster">
<title>cluster_PageNotFoundModule</title>
<polygon fill="none" stroke="#000000" stroke-dasharray="1,5" points="995,-70 995,-138 1597,-138 1597,-70 995,-70"/>
</g>
<g id="clust48" class="cluster">
<title>cluster_PageNotFoundModule_declarations</title>
<polygon fill="none" stroke="#000000" points="1407,-78 1407,-130 1589,-130 1589,-78 1407,-78"/>
</g>
<g id="clust50" class="cluster">
<title>cluster_PageNotFoundModule_imports</title>
<polygon fill="none" stroke="#000000" points="1195,-78 1195,-130 1399,-130 1399,-78 1195,-78"/>
</g>
<g id="clust51" class="cluster">
<title>cluster_PageNotFoundModule_exports</title>
<polygon fill="none" stroke="#000000" points="1003,-78 1003,-130 1187,-130 1187,-78 1003,-78"/>
</g>
<g id="clust60" class="cluster">
<title>cluster_SharedModule</title>
<polygon fill="none" stroke="#000000" stroke-dasharray="1,5" points="1463,-214 1463,-282 2479,-282 2479,-214 1463,-214"/>
</g>
<g id="clust61" class="cluster">
<title>cluster_SharedModule_declarations</title>
<polygon fill="none" stroke="#000000" points="1982,-222 1982,-274 2471,-274 2471,-222 1982,-222"/>
</g>
<g id="clust67" class="cluster">
<title>cluster_SharedModule_exports</title>
<polygon fill="none" stroke="#000000" points="1471,-222 1471,-274 1974,-274 1974,-222 1471,-222"/>
</g>
<!-- AppComponent -->
<g id="node1" class="node">
<title>AppComponent</title>
<polygon fill="#ffffb3" stroke="#000000" points="791.9399,-198 686.0601,-198 686.0601,-162 791.9399,-162 791.9399,-198"/>
<text text-anchor="middle" x="739" y="-175.8" font-family="Times,serif" font-size="14.00" fill="#000000">AppComponent</text>
</g>
<!-- AppModule -->
<g id="node2" class="node">
<title>AppModule</title>
<polygon fill="#8dd3c7" stroke="#000000" points="1033.6571,-266 1030.6571,-270 1009.6571,-270 1006.6571,-266 950.3429,-266 950.3429,-230 1033.6571,-230 1033.6571,-266"/>
<text text-anchor="middle" x="992" y="-243.8" font-family="Times,serif" font-size="14.00" fill="#000000">AppModule</text>
</g>
<!-- AppComponent&#45;&gt;AppModule -->
<g id="edge1" class="edge">
<title>AppComponent&#45;&gt;AppModule</title>
<path fill="none" stroke="#000000" d="M739,-198.2228C739,-218.3652 739,-248 739,-248 739,-248 940.2222,-248 940.2222,-248"/>
<polygon fill="#000000" stroke="#000000" points="940.2222,-251.5001 950.2222,-248 940.2222,-244.5001 940.2222,-251.5001"/>
</g>
<!-- AppComponent  -->
<g id="node8" class="node">
<title>AppComponent </title>
<polygon fill="#80b1d3" stroke="#000000" points="1046.439,-334 937.561,-334 937.561,-298 1046.439,-298 1046.439,-334"/>
<text text-anchor="middle" x="992" y="-311.8" font-family="Times,serif" font-size="14.00" fill="#000000">AppComponent </text>
</g>
<!-- AppModule&#45;&gt;AppComponent  -->
<g id="edge7" class="edge">
<title>AppModule&#45;&gt;AppComponent </title>
<path fill="none" stroke="#000000" stroke-dasharray="1,5" d="M992,-266.2228C992,-266.2228 992,-287.7269 992,-287.7269"/>
<polygon fill="#000000" stroke="#000000" points="988.5001,-287.7269 992,-297.7269 995.5001,-287.727 988.5001,-287.7269"/>
</g>
<!-- CoreModule -->
<g id="node3" class="node">
<title>CoreModule</title>
<polygon fill="#8dd3c7" stroke="#000000" points="1322.2619,-198 1319.2619,-202 1298.2619,-202 1295.2619,-198 1235.7381,-198 1235.7381,-162 1322.2619,-162 1322.2619,-198"/>
<text text-anchor="middle" x="1279" y="-175.8" font-family="Times,serif" font-size="14.00" fill="#000000">CoreModule</text>
</g>
<!-- CoreModule&#45;&gt;AppModule -->
<g id="edge2" class="edge">
<title>CoreModule&#45;&gt;AppModule</title>
<path fill="none" stroke="#000000" d="M1279,-198.1061C1279,-217.3391 1279,-245 1279,-245 1279,-245 1043.7323,-245 1043.7323,-245"/>
<polygon fill="#000000" stroke="#000000" points="1043.7323,-241.5001 1033.7323,-245 1043.7322,-248.5001 1043.7323,-241.5001"/>
</g>
<!-- SharedModule -->
<g id="node4" class="node">
<title>SharedModule</title>
<polygon fill="#8dd3c7" stroke="#000000" points="1439.4231,-198 1436.4231,-202 1415.4231,-202 1412.4231,-198 1340.5769,-198 1340.5769,-162 1439.4231,-162 1439.4231,-198"/>
<text text-anchor="middle" x="1390" y="-175.8" font-family="Times,serif" font-size="14.00" fill="#000000">SharedModule</text>
</g>
<!-- SharedModule&#45;&gt;AppModule -->
<g id="edge3" class="edge">
<title>SharedModule&#45;&gt;AppModule</title>
<path fill="none" stroke="#000000" d="M1390,-198.1686C1390,-219.498 1390,-252 1390,-252 1390,-252 1043.8407,-252 1043.8407,-252"/>
<polygon fill="#000000" stroke="#000000" points="1043.8408,-248.5001 1033.8407,-252 1043.8407,-255.5001 1043.8408,-248.5001"/>
</g>
<!-- ItemsModule -->
<g id="node15" class="node">
<title>ItemsModule</title>
<polygon fill="#8dd3c7" stroke="#000000" points="327.1515,-266 324.1515,-270 303.1515,-270 300.1515,-266 236.8485,-266 236.8485,-230 327.1515,-230 327.1515,-266"/>
<text text-anchor="middle" x="282" y="-243.8" font-family="Times,serif" font-size="14.00" fill="#000000">ItemsModule</text>
</g>
<!-- SharedModule&#45;&gt;ItemsModule -->
<g id="edge14" class="edge">
<title>SharedModule&#45;&gt;ItemsModule</title>
<path fill="none" stroke="#000000" d="M1365.3945,-198.1944C1365.3945,-206.2782 1365.3945,-214 1365.3945,-214 1365.3945,-214 321.3995,-214 321.3995,-214 321.3995,-214 321.3995,-219.8056 321.3995,-219.8056"/>
<polygon fill="#000000" stroke="#000000" points="317.8996,-219.8055 321.3995,-229.8056 324.8996,-219.8056 317.8996,-219.8055"/>
</g>
<!-- NavComponent  -->
<g id="node26" class="node">
<title>NavComponent </title>
<polygon fill="#fb8072" stroke="#000000" points="1715.1537,-266 1606.8463,-266 1606.8463,-230 1715.1537,-230 1715.1537,-266"/>
<text text-anchor="middle" x="1661" y="-243.8" font-family="Times,serif" font-size="14.00" fill="#000000">NavComponent </text>
</g>
<!-- SharedModule&#45;&gt;NavComponent  -->
<g id="edge25" class="edge">
<title>SharedModule&#45;&gt;NavComponent </title>
<path fill="none" stroke="#000000" stroke-dasharray="5,2" d="M1439.3905,-194C1517.5562,-194 1661,-194 1661,-194 1661,-194 1661,-219.7181 1661,-219.7181"/>
<polygon fill="#000000" stroke="#000000" points="1657.5001,-219.718 1661,-229.7181 1664.5001,-219.7181 1657.5001,-219.718"/>
</g>
<!-- ItemComponent  -->
<g id="node27" class="node">
<title>ItemComponent </title>
<polygon fill="#fb8072" stroke="#000000" points="1589.4899,-266 1478.5101,-266 1478.5101,-230 1589.4899,-230 1589.4899,-266"/>
<text text-anchor="middle" x="1534" y="-243.8" font-family="Times,serif" font-size="14.00" fill="#000000">ItemComponent </text>
</g>
<!-- SharedModule&#45;&gt;ItemComponent  -->
<g id="edge26" class="edge">
<title>SharedModule&#45;&gt;ItemComponent </title>
<path fill="none" stroke="#000000" stroke-dasharray="5,2" d="M1414.6056,-198.3228C1414.6056,-221.6602 1414.6056,-259 1414.6056,-259 1414.6056,-259 1468.4972,-259 1468.4972,-259"/>
<polygon fill="#000000" stroke="#000000" points="1468.4972,-262.5001 1478.4972,-259 1468.4971,-255.5001 1468.4972,-262.5001"/>
</g>
<!-- StateDirective  -->
<g id="node28" class="node">
<title>StateDirective </title>
<polygon fill="#fb8072" stroke="#000000" points="1965.5767,-266 1866.4233,-266 1866.4233,-230 1965.5767,-230 1965.5767,-266"/>
<text text-anchor="middle" x="1916" y="-243.8" font-family="Times,serif" font-size="14.00" fill="#000000">StateDirective </text>
</g>
<!-- SharedModule&#45;&gt;StateDirective  -->
<g id="edge27" class="edge">
<title>SharedModule&#45;&gt;StateDirective </title>
<path fill="none" stroke="#000000" stroke-dasharray="5,2" d="M1439.4848,-185C1570.4252,-185 1916,-185 1916,-185 1916,-185 1916,-219.7778 1916,-219.7778"/>
<polygon fill="#000000" stroke="#000000" points="1912.5001,-219.7778 1916,-229.7778 1919.5001,-219.7778 1912.5001,-219.7778"/>
</g>
<!-- FormComponent  -->
<g id="node29" class="node">
<title>FormComponent </title>
<polygon fill="#fb8072" stroke="#000000" points="1848.6663,-266 1733.3337,-266 1733.3337,-230 1848.6663,-230 1848.6663,-266"/>
<text text-anchor="middle" x="1791" y="-243.8" font-family="Times,serif" font-size="14.00" fill="#000000">FormComponent </text>
</g>
<!-- SharedModule&#45;&gt;FormComponent  -->
<g id="edge28" class="edge">
<title>SharedModule&#45;&gt;FormComponent </title>
<path fill="none" stroke="#000000" stroke-dasharray="5,2" d="M1439.5727,-189C1546.8605,-189 1791,-189 1791,-189 1791,-189 1791,-219.9775 1791,-219.9775"/>
<polygon fill="#000000" stroke="#000000" points="1787.5001,-219.9774 1791,-229.9775 1794.5001,-219.9775 1787.5001,-219.9774"/>
</g>
<!-- HomeModule -->
<g id="node5" class="node">
<title>HomeModule</title>
<polygon fill="#8dd3c7" stroke="#000000" points="909.7619,-198 906.7619,-202 885.7619,-202 882.7619,-198 816.2381,-198 816.2381,-162 909.7619,-162 909.7619,-198"/>
<text text-anchor="middle" x="863" y="-175.8" font-family="Times,serif" font-size="14.00" fill="#000000">HomeModule</text>
</g>
<!-- HomeModule&#45;&gt;AppModule -->
<g id="edge4" class="edge">
<title>HomeModule&#45;&gt;AppModule</title>
<path fill="none" stroke="#000000" d="M863,-198.0225C863,-215.3734 863,-239 863,-239 863,-239 940.1174,-239 940.1174,-239"/>
<polygon fill="#000000" stroke="#000000" points="940.1174,-242.5001 950.1174,-239 940.1174,-235.5001 940.1174,-242.5001"/>
</g>
<!-- HomeComponent  -->
<g id="node12" class="node">
<title>HomeComponent </title>
<polygon fill="#fb8072" stroke="#000000" points="668.5442,-122 549.4558,-122 549.4558,-86 668.5442,-86 668.5442,-122"/>
<text text-anchor="middle" x="609" y="-99.8" font-family="Times,serif" font-size="14.00" fill="#000000">HomeComponent </text>
</g>
<!-- HomeModule&#45;&gt;HomeComponent  -->
<g id="edge11" class="edge">
<title>HomeModule&#45;&gt;HomeComponent </title>
<path fill="none" stroke="#000000" stroke-dasharray="5,2" d="M821.226,-161.9672C821.226,-155.1474 821.226,-149 821.226,-149 821.226,-149 605.8518,-149 605.8518,-149 605.8518,-149 605.8518,-132.0439 605.8518,-132.0439"/>
<polygon fill="#000000" stroke="#000000" points="609.3519,-132.0439 605.8518,-122.0439 602.3519,-132.044 609.3519,-132.0439"/>
</g>
<!-- AppRoutingModule -->
<g id="node6" class="node">
<title>AppRoutingModule</title>
<polygon fill="#8dd3c7" stroke="#000000" points="1056.2744,-198 1053.2744,-202 1032.2744,-202 1029.2744,-198 927.7256,-198 927.7256,-162 1056.2744,-162 1056.2744,-198"/>
<text text-anchor="middle" x="992" y="-175.8" font-family="Times,serif" font-size="14.00" fill="#000000">AppRoutingModule</text>
</g>
<!-- AppRoutingModule&#45;&gt;AppModule -->
<g id="edge5" class="edge">
<title>AppRoutingModule&#45;&gt;AppModule</title>
<path fill="none" stroke="#000000" d="M992,-198.2228C992,-198.2228 992,-219.7269 992,-219.7269"/>
<polygon fill="#000000" stroke="#000000" points="988.5001,-219.7269 992,-229.7269 995.5001,-219.727 988.5001,-219.7269"/>
</g>
<!-- PageNotFoundModule -->
<g id="node7" class="node">
<title>PageNotFoundModule</title>
<polygon fill="#8dd3c7" stroke="#000000" points="1217.5421,-198 1214.5421,-202 1193.5421,-202 1190.5421,-198 1074.4579,-198 1074.4579,-162 1217.5421,-162 1217.5421,-198"/>
<text text-anchor="middle" x="1146" y="-175.8" font-family="Times,serif" font-size="14.00" fill="#000000">PageNotFoundModule</text>
</g>
<!-- PageNotFoundModule&#45;&gt;AppModule -->
<g id="edge6" class="edge">
<title>PageNotFoundModule&#45;&gt;AppModule</title>
<path fill="none" stroke="#000000" d="M1146,-198.0336C1146,-215.0597 1146,-238 1146,-238 1146,-238 1043.6746,-238 1043.6746,-238"/>
<polygon fill="#000000" stroke="#000000" points="1043.6747,-234.5001 1033.6746,-238 1043.6746,-241.5001 1043.6747,-234.5001"/>
</g>
<!-- PageNotFoundComponent  -->
<g id="node21" class="node">
<title>PageNotFoundComponent </title>
<polygon fill="#fb8072" stroke="#000000" points="1179.3241,-122 1010.6759,-122 1010.6759,-86 1179.3241,-86 1179.3241,-122"/>
<text text-anchor="middle" x="1095" y="-99.8" font-family="Times,serif" font-size="14.00" fill="#000000">PageNotFoundComponent </text>
</g>
<!-- PageNotFoundModule&#45;&gt;PageNotFoundComponent  -->
<g id="edge20" class="edge">
<title>PageNotFoundModule&#45;&gt;PageNotFoundComponent </title>
<path fill="none" stroke="#000000" stroke-dasharray="5,2" d="M1126.8207,-161.9891C1126.8207,-161.9891 1126.8207,-132.145 1126.8207,-132.145"/>
<polygon fill="#000000" stroke="#000000" points="1130.3207,-132.145 1126.8207,-122.145 1123.3207,-132.1451 1130.3207,-132.145"/>
</g>
<!-- CollectionService -->
<g id="node9" class="node">
<title>CollectionService</title>
<ellipse fill="#fdb462" stroke="#000000" cx="582" cy="-180" rx="80.4519" ry="18"/>
<text text-anchor="middle" x="582" y="-175.8" font-family="Times,serif" font-size="14.00" fill="#000000">CollectionService</text>
</g>
<!-- CollectionService&#45;&gt;AppModule -->
<g id="edge8" class="edge">
<title>CollectionService&#45;&gt;AppModule</title>
<path fill="none" stroke="#000000" d="M582,-198.2479C582,-221.0179 582,-257 582,-257 582,-257 940.0496,-257 940.0496,-257"/>
<polygon fill="#000000" stroke="#000000" points="940.0496,-260.5001 950.0496,-257 940.0496,-253.5001 940.0496,-260.5001"/>
</g>
<!-- HomeComponent -->
<g id="node10" class="node">
<title>HomeComponent</title>
<polygon fill="#ffffb3" stroke="#000000" points="970.5451,-122 855.4549,-122 855.4549,-86 970.5451,-86 970.5451,-122"/>
<text text-anchor="middle" x="913" y="-99.8" font-family="Times,serif" font-size="14.00" fill="#000000">HomeComponent</text>
</g>
<!-- HomeComponent&#45;&gt;HomeModule -->
<g id="edge9" class="edge">
<title>HomeComponent&#45;&gt;HomeModule</title>
<path fill="none" stroke="#000000" d="M882.5544,-122.0109C882.5544,-122.0109 882.5544,-151.855 882.5544,-151.855"/>
<polygon fill="#000000" stroke="#000000" points="879.0544,-151.8549 882.5544,-161.855 886.0544,-151.855 879.0544,-151.8549"/>
</g>
<!-- HomeRoutingModule -->
<g id="node11" class="node">
<title>HomeRoutingModule</title>
<polygon fill="#8dd3c7" stroke="#000000" points="831.3795,-122 828.3795,-126 807.3795,-126 804.3795,-122 692.6205,-122 692.6205,-86 831.3795,-86 831.3795,-122"/>
<text text-anchor="middle" x="762" y="-99.8" font-family="Times,serif" font-size="14.00" fill="#000000">HomeRoutingModule</text>
</g>
<!-- HomeRoutingModule&#45;&gt;HomeModule -->
<g id="edge10" class="edge">
<title>HomeRoutingModule&#45;&gt;HomeModule</title>
<path fill="none" stroke="#000000" d="M826.3329,-122.0109C826.3329,-122.0109 826.3329,-151.855 826.3329,-151.855"/>
<polygon fill="#000000" stroke="#000000" points="822.833,-151.8549 826.3329,-161.855 829.833,-151.855 822.833,-151.8549"/>
</g>
<!-- ListItemsComponent -->
<g id="node13" class="node">
<title>ListItemsComponent</title>
<polygon fill="#ffffb3" stroke="#000000" points="462.212,-198 327.788,-198 327.788,-162 462.212,-162 462.212,-198"/>
<text text-anchor="middle" x="395" y="-175.8" font-family="Times,serif" font-size="14.00" fill="#000000">ListItemsComponent</text>
</g>
<!-- ListItemsComponent&#45;&gt;ItemsModule -->
<g id="edge12" class="edge">
<title>ListItemsComponent&#45;&gt;ItemsModule</title>
<path fill="none" stroke="#000000" d="M327.5519,-180C320.2899,-180 315.4736,-180 315.4736,-180 315.4736,-180 315.4736,-219.7772 315.4736,-219.7772"/>
<polygon fill="#000000" stroke="#000000" points="311.9737,-219.7772 315.4736,-229.7772 318.9737,-219.7773 311.9737,-219.7772"/>
</g>
<!-- AddItemComponent -->
<g id="node14" class="node">
<title>AddItemComponent</title>
<polygon fill="#ffffb3" stroke="#000000" points="309.5954,-198 178.4046,-198 178.4046,-162 309.5954,-162 309.5954,-198"/>
<text text-anchor="middle" x="244" y="-175.8" font-family="Times,serif" font-size="14.00" fill="#000000">AddItemComponent</text>
</g>
<!-- AddItemComponent&#45;&gt;ItemsModule -->
<g id="edge13" class="edge">
<title>AddItemComponent&#45;&gt;ItemsModule</title>
<path fill="none" stroke="#000000" d="M273.1112,-198.2228C273.1112,-198.2228 273.1112,-219.7269 273.1112,-219.7269"/>
<polygon fill="#000000" stroke="#000000" points="269.6112,-219.7269 273.1112,-229.7269 276.6112,-219.727 269.6112,-219.7269"/>
</g>
<!-- ListItemsComponent  -->
<g id="node17" class="node">
<title>ListItemsComponent </title>
<polygon fill="#fb8072" stroke="#000000" points="235.7121,-334 98.2879,-334 98.2879,-298 235.7121,-298 235.7121,-334"/>
<text text-anchor="middle" x="167" y="-311.8" font-family="Times,serif" font-size="14.00" fill="#000000">ListItemsComponent </text>
</g>
<!-- ItemsModule&#45;&gt;ListItemsComponent  -->
<g id="edge16" class="edge">
<title>ItemsModule&#45;&gt;ListItemsComponent </title>
<path fill="none" stroke="#000000" stroke-dasharray="5,2" d="M245.1885,-266.2228C245.1885,-286.3652 245.1885,-316 245.1885,-316 245.1885,-316 244.2608,-316 244.2608,-316"/>
<polygon fill="#000000" stroke="#000000" points="245.9122,-312.5001 235.9122,-316 245.9121,-319.5001 245.9122,-312.5001"/>
</g>
<!-- AddItemComponent  -->
<g id="node18" class="node">
<title>AddItemComponent </title>
<polygon fill="#fb8072" stroke="#000000" points="388.096,-334 253.904,-334 253.904,-298 388.096,-298 388.096,-334"/>
<text text-anchor="middle" x="321" y="-311.8" font-family="Times,serif" font-size="14.00" fill="#000000">AddItemComponent </text>
</g>
<!-- ItemsModule&#45;&gt;AddItemComponent  -->
<g id="edge17" class="edge">
<title>ItemsModule&#45;&gt;AddItemComponent </title>
<path fill="none" stroke="#000000" stroke-dasharray="5,2" d="M290.5139,-266.2228C290.5139,-266.2228 290.5139,-287.7269 290.5139,-287.7269"/>
<polygon fill="#000000" stroke="#000000" points="287.0139,-287.7269 290.5139,-297.7269 294.0139,-287.727 287.0139,-287.7269"/>
</g>
<!-- ItemsRoutesModule -->
<g id="node16" class="node">
<title>ItemsRoutesModule</title>
<polygon fill="#8dd3c7" stroke="#000000" points="153.538,-198 150.538,-202 129.538,-202 126.538,-198 24.462,-198 24.462,-162 153.538,-162 153.538,-198"/>
<text text-anchor="middle" x="89" y="-175.8" font-family="Times,serif" font-size="14.00" fill="#000000">ItemsRoutesModule</text>
</g>
<!-- ItemsRoutesModule&#45;&gt;ItemsModule -->
<g id="edge15" class="edge">
<title>ItemsRoutesModule&#45;&gt;ItemsModule</title>
<path fill="none" stroke="#000000" d="M125.9563,-198.2228C125.9563,-218.3652 125.9563,-248 125.9563,-248 125.9563,-248 226.4462,-248 226.4462,-248"/>
<polygon fill="#000000" stroke="#000000" points="226.4463,-251.5001 236.4462,-248 226.4462,-244.5001 226.4463,-251.5001"/>
</g>
<!-- PageNotFoundComponent -->
<g id="node19" class="node">
<title>PageNotFoundComponent</title>
<polygon fill="#ffffb3" stroke="#000000" points="1580.8243,-122 1415.1757,-122 1415.1757,-86 1580.8243,-86 1580.8243,-122"/>
<text text-anchor="middle" x="1498" y="-99.8" font-family="Times,serif" font-size="14.00" fill="#000000">PageNotFoundComponent</text>
</g>
<!-- PageNotFoundComponent&#45;&gt;PageNotFoundModule -->
<g id="edge18" class="edge">
<title>PageNotFoundComponent&#45;&gt;PageNotFoundModule</title>
<path fill="none" stroke="#000000" d="M1427.2746,-122.2434C1427.2746,-129.4297 1427.2746,-136 1427.2746,-136 1427.2746,-136 1212.7373,-136 1212.7373,-136 1212.7373,-136 1212.7373,-151.8495 1212.7373,-151.8495"/>
<polygon fill="#000000" stroke="#000000" points="1209.2374,-151.8494 1212.7373,-161.8495 1216.2374,-151.8495 1209.2374,-151.8494"/>
</g>
<!-- PageNotFoundRoutingModule -->
<g id="node20" class="node">
<title>PageNotFoundRoutingModule</title>
<polygon fill="#8dd3c7" stroke="#000000" points="1391.1595,-122 1388.1595,-126 1367.1595,-126 1364.1595,-122 1202.8405,-122 1202.8405,-86 1391.1595,-86 1391.1595,-122"/>
<text text-anchor="middle" x="1297" y="-99.8" font-family="Times,serif" font-size="14.00" fill="#000000">PageNotFoundRoutingModule</text>
</g>
<!-- PageNotFoundRoutingModule&#45;&gt;PageNotFoundModule -->
<g id="edge19" class="edge">
<title>PageNotFoundRoutingModule&#45;&gt;PageNotFoundModule</title>
<path fill="none" stroke="#000000" d="M1207.7038,-122.0109C1207.7038,-122.0109 1207.7038,-151.855 1207.7038,-151.855"/>
<polygon fill="#000000" stroke="#000000" points="1204.2039,-151.8549 1207.7038,-161.855 1211.2039,-151.855 1204.2039,-151.8549"/>
</g>
<!-- NavComponent -->
<g id="node22" class="node">
<title>NavComponent</title>
<polygon fill="#ffffb3" stroke="#000000" points="2219.1542,-266 2114.8458,-266 2114.8458,-230 2219.1542,-230 2219.1542,-266"/>
<text text-anchor="middle" x="2167" y="-243.8" font-family="Times,serif" font-size="14.00" fill="#000000">NavComponent</text>
</g>
<!-- NavComponent&#45;&gt;SharedModule -->
<g id="edge21" class="edge">
<title>NavComponent&#45;&gt;SharedModule</title>
<path fill="none" stroke="#000000" d="M2167,-229.8314C2167,-208.502 2167,-176 2167,-176 2167,-176 1449.4902,-176 1449.4902,-176"/>
<polygon fill="#000000" stroke="#000000" points="1449.4902,-172.5001 1439.4902,-176 1449.4901,-179.5001 1449.4902,-172.5001"/>
</g>
<!-- ItemComponent -->
<g id="node23" class="node">
<title>ItemComponent</title>
<polygon fill="#ffffb3" stroke="#000000" points="2096.4888,-266 1989.5112,-266 1989.5112,-230 2096.4888,-230 2096.4888,-266"/>
<text text-anchor="middle" x="2043" y="-243.8" font-family="Times,serif" font-size="14.00" fill="#000000">ItemComponent</text>
</g>
<!-- ItemComponent&#45;&gt;SharedModule -->
<g id="edge22" class="edge">
<title>ItemComponent&#45;&gt;SharedModule</title>
<path fill="none" stroke="#000000" d="M2043,-229.7772C2043,-209.6348 2043,-180 2043,-180 2043,-180 1449.3488,-180 1449.3488,-180"/>
<polygon fill="#000000" stroke="#000000" points="1449.3488,-176.5001 1439.3488,-180 1449.3488,-183.5001 1449.3488,-176.5001"/>
</g>
<!-- StateDirective -->
<g id="node24" class="node">
<title>StateDirective</title>
<polygon fill="#ffffb3" stroke="#000000" points="2463.0758,-266 2366.9242,-266 2366.9242,-230 2463.0758,-230 2463.0758,-266"/>
<text text-anchor="middle" x="2415" y="-243.8" font-family="Times,serif" font-size="14.00" fill="#000000">StateDirective</text>
</g>
<!-- StateDirective&#45;&gt;SharedModule -->
<g id="edge23" class="edge">
<title>StateDirective&#45;&gt;SharedModule</title>
<path fill="none" stroke="#000000" d="M2415,-229.6198C2415,-205.7215 2415,-167 2415,-167 2415,-167 1449.4379,-167 1449.4379,-167"/>
<polygon fill="#000000" stroke="#000000" points="1449.4379,-163.5001 1439.4379,-167 1449.4378,-170.5001 1449.4379,-163.5001"/>
</g>
<!-- FormComponent -->
<g id="node25" class="node">
<title>FormComponent</title>
<polygon fill="#ffffb3" stroke="#000000" points="2348.6667,-266 2237.3333,-266 2237.3333,-230 2348.6667,-230 2348.6667,-266"/>
<text text-anchor="middle" x="2293" y="-243.8" font-family="Times,serif" font-size="14.00" fill="#000000">FormComponent</text>
</g>
<!-- FormComponent&#45;&gt;SharedModule -->
<g id="edge24" class="edge">
<title>FormComponent&#45;&gt;SharedModule</title>
<path fill="none" stroke="#000000" d="M2293,-229.7521C2293,-206.9821 2293,-171 2293,-171 2293,-171 1449.5125,-171 1449.5125,-171"/>
<polygon fill="#000000" stroke="#000000" points="1449.5125,-167.5001 1439.5125,-171 1449.5125,-174.5001 1449.5125,-167.5001"/>
</g>
</g>
</svg>
