<?xml version="1.0" encoding="UTF-8" standalone="no"?>
<!DOCTYPE svg PUBLIC "-//W3C//DTD SVG 1.1//EN"
 "http://www.w3.org/Graphics/SVG/1.1/DTD/svg11.dtd">
<!-- Generated by graphviz version 2.40.1 (20161225.0304)
 -->
<!-- Title: dependencies Pages: 1 -->
<svg width="543pt" height="284pt"
 viewBox="0.00 0.00 543.00 284.00" xmlns="http://www.w3.org/2000/svg" xmlns:xlink="http://www.w3.org/1999/xlink">
<g id="graph0" class="graph" transform="scale(1 1) rotate(0) translate(4 280)">
<title>dependencies</title>
<polygon fill="#ffffff" stroke="transparent" points="-4,4 -4,-280 539,-280 539,4 -4,4"/>
<text text-anchor="start" x="246.5091" y="-42.4" font-family="sans-serif" font-weight="bold" font-size="14.00" fill="#000000">Legend</text>
<polygon fill="#ffffb3" stroke="transparent" points="33.5,-10 33.5,-30 53.5,-30 53.5,-10 33.5,-10"/>
<text text-anchor="start" x="57.129" y="-15.4" font-family="sans-serif" font-size="14.00" fill="#000000"> &#160;Declarations</text>
<polygon fill="#8dd3c7" stroke="transparent" points="146.5,-10 146.5,-30 166.5,-30 166.5,-10 146.5,-10"/>
<text text-anchor="start" x="170.2251" y="-15.4" font-family="sans-serif" font-size="14.00" fill="#000000"> &#160;Module</text>
<polygon fill="#80b1d3" stroke="transparent" points="232.5,-10 232.5,-30 252.5,-30 252.5,-10 232.5,-10"/>
<text text-anchor="start" x="256.2812" y="-15.4" font-family="sans-serif" font-size="14.00" fill="#000000"> &#160;Bootstrap</text>
<polygon fill="#fdb462" stroke="transparent" points="329.5,-10 329.5,-30 349.5,-30 349.5,-10 329.5,-10"/>
<text text-anchor="start" x="353.1732" y="-15.4" font-family="sans-serif" font-size="14.00" fill="#000000"> &#160;Providers</text>
<polygon fill="#fb8072" stroke="transparent" points="425.5,-10 425.5,-30 445.5,-30 445.5,-10 425.5,-10"/>
<text text-anchor="start" x="449.2258" y="-15.4" font-family="sans-serif" font-size="14.00" fill="#000000"> &#160;Exports</text>
<g id="clust1" class="cluster">
<title>cluster_SharedModule</title>
<polygon fill="none" stroke="#000000" stroke-dasharray="1,5" points="8,-70 8,-268 527,-268 527,-70 8,-70"/>
</g>
<g id="clust2" class="cluster">
<title>cluster_SharedModule_declarations</title>
<polygon fill="none" stroke="#000000" points="24,-78 24,-130 514,-130 514,-78 24,-78"/>
</g>
<g id="clust8" class="cluster">
<title>cluster_SharedModule_exports</title>
<polygon fill="none" stroke="#000000" points="16,-208 16,-260 519,-260 519,-208 16,-208"/>
</g>
<!-- NavComponent -->
<g id="node1" class="node">
<title>NavComponent</title>
<polygon fill="#ffffb3" stroke="#000000" points="506.1542,-122 401.8458,-122 401.8458,-86 506.1542,-86 506.1542,-122"/>
<text text-anchor="middle" x="454" y="-99.8" font-family="Times,serif" font-size="14.00" fill="#000000">NavComponent</text>
</g>
<!-- SharedModule -->
<g id="node5" class="node">
<title>SharedModule</title>
<polygon fill="#8dd3c7" stroke="#000000" points="261.4231,-187 258.4231,-191 237.4231,-191 234.4231,-187 162.5769,-187 162.5769,-151 261.4231,-151 261.4231,-187"/>
<text text-anchor="middle" x="212" y="-164.8" font-family="Times,serif" font-size="14.00" fill="#000000">SharedModule</text>
</g>
<!-- NavComponent&#45;&gt;SharedModule -->
<g id="edge1" class="edge">
<title>NavComponent&#45;&gt;SharedModule</title>
<path fill="none" stroke="#000000" d="M471.8589,-122.2667C471.8589,-140.5552 471.8589,-166 471.8589,-166 471.8589,-166 271.4891,-166 271.4891,-166"/>
<polygon fill="#000000" stroke="#000000" points="271.4892,-162.5001 261.4891,-166 271.4891,-169.5001 271.4892,-162.5001"/>
</g>
<!-- ItemComponent -->
<g id="node2" class="node">
<title>ItemComponent</title>
<polygon fill="#ffffb3" stroke="#000000" points="383.4888,-122 276.5112,-122 276.5112,-86 383.4888,-86 383.4888,-122"/>
<text text-anchor="middle" x="330" y="-99.8" font-family="Times,serif" font-size="14.00" fill="#000000">ItemComponent</text>
</g>
<!-- ItemComponent&#45;&gt;SharedModule -->
<g id="edge2" class="edge">
<title>ItemComponent&#45;&gt;SharedModule</title>
<path fill="none" stroke="#000000" d="M347.8315,-122.0091C347.8315,-138.0494 347.8315,-159 347.8315,-159 347.8315,-159 271.4225,-159 271.4225,-159"/>
<polygon fill="#000000" stroke="#000000" points="271.4226,-155.5001 261.4225,-159 271.4225,-162.5001 271.4226,-155.5001"/>
</g>
<!-- StateDirective -->
<g id="node3" class="node">
<title>StateDirective</title>
<polygon fill="#ffffb3" stroke="#000000" points="258.0758,-122 161.9242,-122 161.9242,-86 258.0758,-86 258.0758,-122"/>
<text text-anchor="middle" x="210" y="-99.8" font-family="Times,serif" font-size="14.00" fill="#000000">StateDirective</text>
</g>
<!-- StateDirective&#45;&gt;SharedModule -->
<g id="edge3" class="edge">
<title>StateDirective&#45;&gt;SharedModule</title>
<path fill="none" stroke="#000000" d="M210.4134,-122.1061C210.4134,-122.1061 210.4134,-140.991 210.4134,-140.991"/>
<polygon fill="#000000" stroke="#000000" points="206.9135,-140.9909 210.4134,-150.991 213.9135,-140.991 206.9135,-140.9909"/>
</g>
<!-- FormComponent -->
<g id="node4" class="node">
<title>FormComponent</title>
<polygon fill="#ffffb3" stroke="#000000" points="143.6667,-122 32.3333,-122 32.3333,-86 143.6667,-86 143.6667,-122"/>
<text text-anchor="middle" x="88" y="-99.8" font-family="Times,serif" font-size="14.00" fill="#000000">FormComponent</text>
</g>
<!-- FormComponent&#45;&gt;SharedModule -->
<g id="edge4" class="edge">
<title>FormComponent&#45;&gt;SharedModule</title>
<path fill="none" stroke="#000000" d="M103.7777,-122.0225C103.7777,-139.3734 103.7777,-163 103.7777,-163 103.7777,-163 152.6393,-163 152.6393,-163"/>
<polygon fill="#000000" stroke="#000000" points="152.6393,-166.5001 162.6393,-163 152.6392,-159.5001 152.6393,-166.5001"/>
</g>
<!-- NavComponent  -->
<g id="node6" class="node">
<title>NavComponent </title>
<polygon fill="#fb8072" stroke="#000000" points="511.1537,-252 402.8463,-252 402.8463,-216 511.1537,-216 511.1537,-252"/>
<text text-anchor="middle" x="457" y="-229.8" font-family="Times,serif" font-size="14.00" fill="#000000">NavComponent </text>
</g>
<!-- SharedModule&#45;&gt;NavComponent  -->
<g id="edge5" class="edge">
<title>SharedModule&#45;&gt;NavComponent </title>
<path fill="none" stroke="#000000" stroke-dasharray="5,2" d="M261.463,-173C327.8106,-173 437.3911,-173 437.3911,-173 437.3911,-173 437.3911,-205.698 437.3911,-205.698"/>
<polygon fill="#000000" stroke="#000000" points="433.8912,-205.698 437.3911,-215.698 440.8912,-205.698 433.8912,-205.698"/>
</g>
<!-- ItemComponent  -->
<g id="node7" class="node">
<title>ItemComponent </title>
<polygon fill="#fb8072" stroke="#000000" points="385.4899,-252 274.5101,-252 274.5101,-216 385.4899,-216 385.4899,-252"/>
<text text-anchor="middle" x="330" y="-229.8" font-family="Times,serif" font-size="14.00" fill="#000000">ItemComponent </text>
</g>
<!-- SharedModule&#45;&gt;ItemComponent  -->
<g id="edge6" class="edge">
<title>SharedModule&#45;&gt;ItemComponent </title>
<path fill="none" stroke="#000000" stroke-dasharray="5,2" d="M261.4974,-180C286.7336,-180 312.1685,-180 312.1685,-180 312.1685,-180 312.1685,-205.7181 312.1685,-205.7181"/>
<polygon fill="#000000" stroke="#000000" points="308.6686,-205.718 312.1685,-215.7181 315.6686,-205.7181 308.6686,-205.718"/>
</g>
<!-- StateDirective  -->
<g id="node8" class="node">
<title>StateDirective </title>
<polygon fill="#fb8072" stroke="#000000" points="256.5767,-252 157.4233,-252 157.4233,-216 256.5767,-216 256.5767,-252"/>
<text text-anchor="middle" x="207" y="-229.8" font-family="Times,serif" font-size="14.00" fill="#000000">StateDirective </text>
</g>
<!-- SharedModule&#45;&gt;StateDirective  -->
<g id="edge7" class="edge">
<title>SharedModule&#45;&gt;StateDirective </title>
<path fill="none" stroke="#000000" stroke-dasharray="5,2" d="M209.7884,-187.1061C209.7884,-187.1061 209.7884,-205.991 209.7884,-205.991"/>
<polygon fill="#000000" stroke="#000000" points="206.2885,-205.9909 209.7884,-215.991 213.2885,-205.991 206.2885,-205.9909"/>
</g>
<!-- FormComponent  -->
<g id="node9" class="node">
<title>FormComponent </title>
<polygon fill="#fb8072" stroke="#000000" points="139.6663,-252 24.3337,-252 24.3337,-216 139.6663,-216 139.6663,-252"/>
<text text-anchor="middle" x="82" y="-229.8" font-family="Times,serif" font-size="14.00" fill="#000000">FormComponent </text>
</g>
<!-- SharedModule&#45;&gt;FormComponent  -->
<g id="edge8" class="edge">
<title>SharedModule&#45;&gt;FormComponent </title>
<path fill="none" stroke="#000000" stroke-dasharray="5,2" d="M162.4338,-175C120.7718,-175 67.9723,-175 67.9723,-175 67.9723,-175 67.9723,-205.9775 67.9723,-205.9775"/>
<polygon fill="#000000" stroke="#000000" points="64.4724,-205.9774 67.9723,-215.9775 71.4724,-205.9775 64.4724,-205.9774"/>
</g>
</g>
</svg>
