<?xml version="1.0" encoding="UTF-8" standalone="no"?>
<!DOCTYPE svg PUBLIC "-//W3C//DTD SVG 1.1//EN"
 "http://www.w3.org/Graphics/SVG/1.1/DTD/svg11.dtd">
<!-- Generated by graphviz version 2.40.1 (20161225.0304)
 -->
<!-- Title: dependencies Pages: 1 -->
<svg width="610pt" height="284pt"
 viewBox="0.00 0.00 610.00 284.00" xmlns="http://www.w3.org/2000/svg" xmlns:xlink="http://www.w3.org/1999/xlink">
<g id="graph0" class="graph" transform="scale(1 1) rotate(0) translate(4 280)">
<title>dependencies</title>
<polygon fill="#ffffff" stroke="transparent" points="-4,4 -4,-280 606,-280 606,4 -4,4"/>
<text text-anchor="start" x="280.0091" y="-42.4" font-family="sans-serif" font-weight="bold" font-size="14.00" fill="#000000">Legend</text>
<polygon fill="#ffffb3" stroke="transparent" points="67,-10 67,-30 87,-30 87,-10 67,-10"/>
<text text-anchor="start" x="90.629" y="-15.4" font-family="sans-serif" font-size="14.00" fill="#000000"> &#160;Declarations</text>
<polygon fill="#8dd3c7" stroke="transparent" points="180,-10 180,-30 200,-30 200,-10 180,-10"/>
<text text-anchor="start" x="203.7251" y="-15.4" font-family="sans-serif" font-size="14.00" fill="#000000"> &#160;Module</text>
<polygon fill="#80b1d3" stroke="transparent" points="266,-10 266,-30 286,-30 286,-10 266,-10"/>
<text text-anchor="start" x="289.7812" y="-15.4" font-family="sans-serif" font-size="14.00" fill="#000000"> &#160;Bootstrap</text>
<polygon fill="#fdb462" stroke="transparent" points="363,-10 363,-30 383,-30 383,-10 363,-10"/>
<text text-anchor="start" x="386.6732" y="-15.4" font-family="sans-serif" font-size="14.00" fill="#000000"> &#160;Providers</text>
<polygon fill="#fb8072" stroke="transparent" points="459,-10 459,-30 479,-30 479,-10 459,-10"/>
<text text-anchor="start" x="482.7258" y="-15.4" font-family="sans-serif" font-size="14.00" fill="#000000"> &#160;Exports</text>
<g id="clust1" class="cluster">
<title>cluster_ItemsModule</title>
<polygon fill="none" stroke="#000000" stroke-dasharray="1,5" points="8,-70 8,-268 594,-268 594,-70 8,-70"/>
</g>
<g id="clust2" class="cluster">
<title>cluster_ItemsModule_declarations</title>
<polygon fill="none" stroke="#000000" points="286,-78 286,-130 586,-130 586,-78 286,-78"/>
</g>
<g id="clust5" class="cluster">
<title>cluster_ItemsModule_imports</title>
<polygon fill="none" stroke="#000000" points="16,-78 16,-130 278,-130 278,-78 16,-78"/>
</g>
<g id="clust6" class="cluster">
<title>cluster_ItemsModule_exports</title>
<polygon fill="none" stroke="#000000" points="136,-208 136,-260 442,-260 442,-208 136,-208"/>
</g>
<!-- ListItemsComponent -->
<g id="node1" class="node">
<title>ListItemsComponent</title>
<polygon fill="#ffffb3" stroke="#000000" points="578.212,-122 443.788,-122 443.788,-86 578.212,-86 578.212,-122"/>
<text text-anchor="middle" x="511" y="-99.8" font-family="Times,serif" font-size="14.00" fill="#000000">ListItemsComponent</text>
</g>
<!-- ItemsModule -->
<g id="node3" class="node">
<title>ItemsModule</title>
<polygon fill="#8dd3c7" stroke="#000000" points="333.1515,-187 330.1515,-191 309.1515,-191 306.1515,-187 242.8485,-187 242.8485,-151 333.1515,-151 333.1515,-187"/>
<text text-anchor="middle" x="288" y="-164.8" font-family="Times,serif" font-size="14.00" fill="#000000">ItemsModule</text>
</g>
<!-- ListItemsComponent&#45;&gt;ItemsModule -->
<g id="edge1" class="edge">
<title>ListItemsComponent&#45;&gt;ItemsModule</title>
<path fill="none" stroke="#000000" d="M511,-122.1061C511,-141.3391 511,-169 511,-169 511,-169 343.3962,-169 343.3962,-169"/>
<polygon fill="#000000" stroke="#000000" points="343.3962,-165.5001 333.3962,-169 343.3961,-172.5001 343.3962,-165.5001"/>
</g>
<!-- AddItemComponent -->
<g id="node2" class="node">
<title>AddItemComponent</title>
<polygon fill="#ffffb3" stroke="#000000" points="425.5954,-122 294.4046,-122 294.4046,-86 425.5954,-86 425.5954,-122"/>
<text text-anchor="middle" x="360" y="-99.8" font-family="Times,serif" font-size="14.00" fill="#000000">AddItemComponent</text>
</g>
<!-- AddItemComponent&#45;&gt;ItemsModule -->
<g id="edge2" class="edge">
<title>AddItemComponent&#45;&gt;ItemsModule</title>
<path fill="none" stroke="#000000" d="M313.8889,-122.1061C313.8889,-122.1061 313.8889,-140.991 313.8889,-140.991"/>
<polygon fill="#000000" stroke="#000000" points="310.3889,-140.9909 313.8889,-150.991 317.3889,-140.991 310.3889,-140.9909"/>
</g>
<!-- ListItemsComponent  -->
<g id="node6" class="node">
<title>ListItemsComponent </title>
<polygon fill="#fb8072" stroke="#000000" points="433.7121,-252 296.2879,-252 296.2879,-216 433.7121,-216 433.7121,-252"/>
<text text-anchor="middle" x="365" y="-229.8" font-family="Times,serif" font-size="14.00" fill="#000000">ListItemsComponent </text>
</g>
<!-- ItemsModule&#45;&gt;ListItemsComponent  -->
<g id="edge5" class="edge">
<title>ItemsModule&#45;&gt;ListItemsComponent </title>
<path fill="none" stroke="#000000" stroke-dasharray="5,2" d="M314.7347,-187.1061C314.7347,-187.1061 314.7347,-205.991 314.7347,-205.991"/>
<polygon fill="#000000" stroke="#000000" points="311.2348,-205.9909 314.7347,-215.991 318.2348,-205.991 311.2348,-205.9909"/>
</g>
<!-- AddItemComponent  -->
<g id="node7" class="node">
<title>AddItemComponent </title>
<polygon fill="#fb8072" stroke="#000000" points="278.096,-252 143.904,-252 143.904,-216 278.096,-216 278.096,-252"/>
<text text-anchor="middle" x="211" y="-229.8" font-family="Times,serif" font-size="14.00" fill="#000000">AddItemComponent </text>
</g>
<!-- ItemsModule&#45;&gt;AddItemComponent  -->
<g id="edge6" class="edge">
<title>ItemsModule&#45;&gt;AddItemComponent </title>
<path fill="none" stroke="#000000" stroke-dasharray="5,2" d="M260.4862,-187.1061C260.4862,-187.1061 260.4862,-205.991 260.4862,-205.991"/>
<polygon fill="#000000" stroke="#000000" points="256.9862,-205.9909 260.4862,-215.991 263.9862,-205.991 256.9862,-205.9909"/>
</g>
<!-- SharedModule -->
<g id="node4" class="node">
<title>SharedModule</title>
<polygon fill="#8dd3c7" stroke="#000000" points="270.4231,-122 267.4231,-126 246.4231,-126 243.4231,-122 171.5769,-122 171.5769,-86 270.4231,-86 270.4231,-122"/>
<text text-anchor="middle" x="221" y="-99.8" font-family="Times,serif" font-size="14.00" fill="#000000">SharedModule</text>
</g>
<!-- SharedModule&#45;&gt;ItemsModule -->
<g id="edge3" class="edge">
<title>SharedModule&#45;&gt;ItemsModule</title>
<path fill="none" stroke="#000000" d="M256.4429,-122.1061C256.4429,-122.1061 256.4429,-140.991 256.4429,-140.991"/>
<polygon fill="#000000" stroke="#000000" points="252.9429,-140.9909 256.4429,-150.991 259.9429,-140.991 252.9429,-140.9909"/>
</g>
<!-- ItemsRoutesModule -->
<g id="node5" class="node">
<title>ItemsRoutesModule</title>
<polygon fill="#8dd3c7" stroke="#000000" points="153.538,-122 150.538,-126 129.538,-126 126.538,-122 24.462,-122 24.462,-86 153.538,-86 153.538,-122"/>
<text text-anchor="middle" x="89" y="-99.8" font-family="Times,serif" font-size="14.00" fill="#000000">ItemsRoutesModule</text>
</g>
<!-- ItemsRoutesModule&#45;&gt;ItemsModule -->
<g id="edge4" class="edge">
<title>ItemsRoutesModule&#45;&gt;ItemsModule</title>
<path fill="none" stroke="#000000" d="M148.7355,-122.1061C148.7355,-141.3391 148.7355,-169 148.7355,-169 148.7355,-169 232.7848,-169 232.7848,-169"/>
<polygon fill="#000000" stroke="#000000" points="232.7848,-172.5001 242.7848,-169 232.7848,-165.5001 232.7848,-172.5001"/>
</g>
</g>
</svg>
